<?xml version="1.0" encoding="utf-8"?><svg xmlns="http://www.w3.org/2000/svg" xmlns:xlink="http://www.w3.org/1999/xlink"><symbol viewBox="0 0 488.878 488.878" id="check-u" xmlns="http://www.w3.org/2000/svg"><path d="M143.294 340.058l-92.457-92.456L0 298.439l122.009 122.008.14-.141 22.274 22.274L488.878 98.123l-51.823-51.825z"/></symbol><symbol viewBox="0 0 512 512" id="email-f" xmlns="http://www.w3.org/2000/svg"><path d="M255 0C114.06 0 0 114.05 0 255c0 139.895 113.025 257 255 257 140.644 0 257-115.914 257-257C512 112.87 394.743 0 255 0zm0 482.2C130.935 482.2 29.8 380.168 29.8 255 29.8 130.935 130.935 29.8 255 29.8c125.168 0 227.2 101.135 227.2 225.2 0 125.168-102.032 227.2-227.2 227.2z"/><path d="M255 90c-90.981 0-165 74.019-165 165 0 91.323 73.867 167 165 167 36.874 0 74.175-12.393 102.339-34.001 6.573-5.043 7.813-14.459 2.77-21.032-5.043-6.573-14.46-7.813-21.032-2.77C316.048 381.866 285.403 392.2 255 392.2c-74.439 0-135-61.658-135-137.2 0-74.439 60.561-135.2 135-135.2 75.542 0 137 60.761 137 135.2v15c0 16.542-13.458 30-30 30s-30-13.458-30-30v-75c0-8.284-6.716-15-15-15s-15 6.716-15 15v.951C288.454 185.622 272.068 180 255 180c-41.355 0-75 33.645-75 75s33.645 75 75 75c22.423 0 43.059-9.622 57.735-25.812C323.583 319.772 341.615 330 362 330c33.084 0 60-26.916 60-60v-15c0-91.254-75.79-165-167-165zm0 210.2c-24.813 0-45-20.387-45-45.2s20.187-45.2 45-45.2c25.477 0 47 20.807 47 45.2s-21.523 45.2-47 45.2z"/></symbol><symbol viewBox="0 0 512 512" id="key" xmlns="http://www.w3.org/2000/svg"><path d="M334.974 0c-95.419 0-173.049 77.63-173.049 173.049 0 21.213 3.769 41.827 11.211 61.403L7.672 399.928a12.613 12.613 0 00-3.694 8.917v90.544c0 6.965 5.646 12.611 12.611 12.611h74.616a12.61 12.61 0 008.91-3.686l25.145-25.107a12.61 12.61 0 003.701-8.925v-30.876h30.837c6.965 0 12.611-5.646 12.611-12.611v-12.36h12.361c6.964 0 12.611-5.646 12.611-12.611v-27.136h27.136c3.344 0 6.551-1.329 8.917-3.694l40.121-40.121c19.579 7.449 40.196 11.223 61.417 11.223 95.419 0 173.049-77.63 173.049-173.049C508.022 77.63 430.393 0 334.974 0zm0 320.874c-20.642 0-40.606-4.169-59.339-12.393-4.844-2.126-10.299-.956-13.871 2.525-.039.037-.077.067-.115.106l-42.354 42.354h-34.523c-6.965 0-12.611 5.646-12.611 12.611v27.136H159.8c-6.964 0-12.611 5.646-12.611 12.611v12.36h-30.838c-6.964 0-12.611 5.646-12.611 12.611v38.257l-17.753 17.725H29.202v-17.821l154.141-154.14c4.433-4.433 4.433-11.619 0-16.051s-11.617-4.434-16.053 0L29.202 436.854V414.07l167.696-167.708c.038-.038.067-.073.102-.11 3.482-3.569 4.656-9.024 2.53-13.872-8.216-18.732-12.38-38.695-12.38-59.33 0-81.512 66.315-147.827 147.827-147.827S482.802 91.537 482.802 173.05c-.002 81.51-66.318 147.824-147.828 147.824z"/><path d="M387.638 73.144c-26.047 0-47.237 21.19-47.237 47.237s21.19 47.237 47.237 47.237 47.237-21.19 47.237-47.237-21.189-47.237-47.237-47.237zm0 69.252c-12.139 0-22.015-9.876-22.015-22.015s9.876-22.015 22.015-22.015 22.015 9.876 22.015 22.015-9.876 22.015-22.015 22.015z"/></symbol><symbol viewBox="0 0 491.582 491.582" id="location-s" xmlns="http://www.w3.org/2000/svg"><path d="M245.791 0C153.799 0 78.957 74.841 78.957 166.833c0 36.967 21.764 93.187 68.493 176.926 31.887 57.138 63.627 105.4 64.966 107.433l22.941 34.773a12.497 12.497 0 0020.868 0l22.94-34.771c1.326-2.01 32.835-49.855 64.967-107.435 46.729-83.735 68.493-139.955 68.493-176.926C412.625 74.841 337.783 0 245.791 0zm76.511 331.576c-31.685 56.775-62.696 103.869-64.003 105.848l-12.508 18.959-12.504-18.954c-1.314-1.995-32.563-49.511-64.007-105.853-43.345-77.676-65.323-133.104-65.323-164.743C103.957 88.626 167.583 25 245.791 25s141.834 63.626 141.834 141.833c0 31.643-21.978 87.069-65.323 164.743z"/><path d="M245.791 73.291c-51.005 0-92.5 41.496-92.5 92.5s41.495 92.5 92.5 92.5 92.5-41.496 92.5-92.5-41.495-92.5-92.5-92.5zm0 160c-37.22 0-67.5-30.28-67.5-67.5s30.28-67.5 67.5-67.5c37.221 0 67.5 30.28 67.5 67.5s-30.279 67.5-67.5 67.5z"/></symbol></svg>